<svg id="Layer_1" data-name="Layer 1" xmlns="http://www.w3.org/2000/svg" viewBox="0 0 50 50"><defs><style>.cls-1{fill:#fff;}.cls-2{fill:#659bf8;}</style></defs><title>loc</title><circle class="cls-1" cx="25" cy="25" r="25"/><path class="cls-2" d="M36.6,23.7H35.2a10.3,10.3,0,0,0-8.9-8.9V13.4A1.3,1.3,0,0,0,25,12.2h0a1.3,1.3,0,0,0-1.3,1.3v1.4a10.3,10.3,0,0,0-8.9,8.9H13.4a1.3,1.3,0,1,0,0,2.6h1.4a10.3,10.3,0,0,0,8.9,8.9v1.4a1.3,1.3,0,0,0,2.6,0V35.2a10.3,10.3,0,0,0,8.9-8.9h1.4A1.3,1.3,0,0,0,37.8,25h0A1.3,1.3,0,0,0,36.6,23.7Zm-5.1,2.6h1.2a7.7,7.7,0,0,1-6.3,6.3V31.4a1.3,1.3,0,1,0-2.6,0v1.2a7.7,7.7,0,0,1-6.3-6.3h1.2A1.3,1.3,0,0,0,19.9,25h0a1.3,1.3,0,0,0-1.3-1.3H17.4a7.7,7.7,0,0,1,6.3-6.3v1.2a1.3,1.3,0,1,0,2.6,0V17.4a7.7,7.7,0,0,1,6.3,6.3H31.4A1.3,1.3,0,0,0,30.1,25h0A1.3,1.3,0,0,0,31.4,26.3Z"/><circle class="cls-2" cx="25" cy="25" r="2.6"/></svg>